<svg xmlns="http://www.w3.org/2000/svg" xmlns:xlink="http://www.w3.org/1999/xlink">
  <defs>

    <symbol viewBox="0 0 24 24" id="twitter">
      <path
        d="M18.244 2.25h3.308l-7.227 8.26 8.502 11.24H16.17l-5.214-6.817L4.99 21.75H1.68l7.73-8.835L1.254 2.25H8.08l4.713 6.231zm-1.161 17.52h1.833L7.084 4.126H5.117z">
      </path>
    </symbol>

    <symbol viewBox="0 0 24 24" id="cross">
      <path
        d="M10.59 12L4.54 5.96l1.42-1.42L12 10.59l6.04-6.05 1.42 1.42L13.41 12l6.05 6.04-1.42 1.42L12 13.41l-6.04 6.05-1.42-1.42L10.59 12z">
      </path>
    </symbol>

    <symbol viewBox="0 0 24 24" id="retry">
      <path
        d="M12 4c-4.418 0-8 3.58-8 8s3.582 8 8 8c3.806 0 6.993-2.66 7.802-6.22l1.95.44C20.742 18.67 16.76 22 12 22 6.477 22 2 17.52 2 12S6.477 2 12 2c3.272 0 6.176 1.57 8 4V3.5h2v6h-6v-2h2.616C17.175 5.39 14.749 4 12 4z">
      </path>
    </symbol>

    <symbol viewBox="0 0 24 24" id="back">
      <path d="M7.414 13l5.043 5.04-1.414 1.42L3.586 12l7.457-7.46 1.414 1.42L7.414 11H21v2H7.414z"></path>
    </symbol>

    <symbol viewBox="0 0 24 24" id="ellipsis">
      <path
        d="M3 12c0-1.1.9-2 2-2s2 .9 2 2-.9 2-2 2-2-.9-2-2zm9 2c1.1 0 2-.9 2-2s-.9-2-2-2-2 .9-2 2 .9 2 2 2zm7 0c1.1 0 2-.9 2-2s-.9-2-2-2-2 .9-2 2 .9 2 2 2z">
      </path>
    </symbol>

    <symbol viewBox="0 0 24 24" id="ellipsis-circle">
      <path
        d="M3.75 12c0-4.56 3.69-8.25 8.25-8.25s8.25 3.69 8.25 8.25-3.69 8.25-8.25 8.25S3.75 16.56 3.75 12zM12 1.75C6.34 1.75 1.75 6.34 1.75 12S6.34 22.25 12 22.25 22.25 17.66 22.25 12 17.66 1.75 12 1.75zm-4.75 11.5c.69 0 1.25-.56 1.25-1.25s-.56-1.25-1.25-1.25S6 11.31 6 12s.56 1.25 1.25 1.25zm9.5 0c.69 0 1.25-.56 1.25-1.25s-.56-1.25-1.25-1.25-1.25.56-1.25 1.25.56 1.25 1.25 1.25zM13.25 12c0 .69-.56 1.25-1.25 1.25s-1.25-.56-1.25-1.25.56-1.25 1.25-1.25 1.25.56 1.25 1.25z">
      </path>
    </symbol>

    <symbol viewBox="0 0 24 24" id="verified">
      <path
        d="M20.396 11c-.018-.646-.215-1.275-.57-1.816-.354-.54-.852-.972-1.438-1.246.223-.607.27-1.264.14-1.897-.131-.634-.437-1.218-.882-1.687-.47-.445-1.053-.75-1.687-.882-.633-.13-1.29-.083-1.897.14-.273-.587-.704-1.086-1.245-1.44S11.647 1.62 11 1.604c-.646.017-1.273.213-1.813.568s-.969.854-1.24 1.44c-.608-.223-1.267-.272-1.902-.14-.635.13-1.22.436-1.69.882-.445.47-.749 1.055-.878 1.688-.13.633-.08 1.29.144 1.896-.587.274-1.087.705-1.443 1.245-.356.54-.555 1.17-.574 1.817.02.647.218 1.276.574 1.817.356.54.856.972 1.443 1.245-.224.606-.274 1.263-.144 1.896.13.634.433 1.218.877 1.688.47.443 1.054.747 1.687.878.633.132 1.29.084 1.897-.136.274.586.705 1.084 1.246 1.439.54.354 1.17.551 1.816.569.647-.016 1.276-.213 1.817-.567s.972-.854 1.245-1.44c.604.239 1.266.296 1.903.164.636-.132 1.22-.447 1.68-.907.46-.46.776-1.044.908-1.681s.075-1.299-.165-1.903c.586-.274 1.084-.705 1.439-1.246.354-.54.551-1.17.569-1.816zM9.662 14.85l-3.429-3.428 1.293-1.302 2.072 2.072 4.4-4.794 1.347 1.246z">
      </path>
    </symbol>

    <symbol viewBox="0 0 24 24" id="home">
      <path
        d="M21.591 7.146L12.52 1.157c-.316-.21-.724-.21-1.04 0l-9.071 5.99c-.26.173-.409.456-.409.757v13.183c0 .502.418.913.929.913h6.638c.511 0 .929-.41.929-.913v-7.075h3.008v7.075c0 .502.418.913.929.913h6.639c.51 0 .928-.41.928-.913V7.904c0-.301-.158-.584-.408-.758zM20 20l-4.5.01.011-7.097c0-.502-.418-.913-.928-.913H9.44c-.511 0-.929.41-.929.913L8.5 20H4V8.773l8.011-5.342L20 8.764z">
      </path>
    </symbol>

    <symbol viewBox="0 0 24 24" id="home-solid">
      <path
        d="M21.591 7.146L12.52 1.157c-.316-.21-.724-.21-1.04 0l-9.071 5.99c-.26.173-.409.456-.409.757v13.183c0 .502.418.913.929.913H9.14c.51 0 .929-.41.929-.913v-7.075h3.909v7.075c0 .502.417.913.928.913h6.165c.511 0 .929-.41.929-.913V7.904c0-.301-.158-.584-.408-.758z">
      </path>
    </symbol>

    <symbol viewBox="0 0 24 24" id="search">
      <path
        d="M10.25 3.75c-3.59 0-6.5 2.91-6.5 6.5s2.91 6.5 6.5 6.5c1.795 0 3.419-.726 4.596-1.904 1.178-1.177 1.904-2.801 1.904-4.596 0-3.59-2.91-6.5-6.5-6.5zm-8.5 6.5c0-4.694 3.806-8.5 8.5-8.5s8.5 3.806 8.5 8.5c0 1.986-.682 3.815-1.824 5.262l4.781 4.781-1.414 1.414-4.781-4.781c-1.447 1.142-3.276 1.824-5.262 1.824-4.694 0-8.5-3.806-8.5-8.5z">
      </path>
    </symbol>

    <symbol viewBox="0 0 24 24" id="search-solid">
      <path
        d="M10.25 4.25c-3.314 0-6 2.686-6 6s2.686 6 6 6c1.657 0 3.155-.67 4.243-1.757 1.087-1.088 1.757-2.586 1.757-4.243 0-3.314-2.686-6-6-6zm-9 6c0-4.971 4.029-9 9-9s9 4.029 9 9c0 1.943-.617 3.744-1.664 5.215l4.475 4.474-2.122 2.122-4.474-4.475c-1.471 1.047-3.272 1.664-5.215 1.664-4.971 0-9-4.029-9-9z">
      </path>
    </symbol>

    <symbol viewBox="0 0 24 24" id="notifications">
      <path
        d="M19.993 9.042C19.48 5.017 16.054 2 11.996 2s-7.49 3.021-7.999 7.051L2.866 18H7.1c.463 2.282 2.481 4 4.9 4s4.437-1.718 4.9-4h4.236l-1.143-8.958zM12 20c-1.306 0-2.417-.835-2.829-2h5.658c-.412 1.165-1.523 2-2.829 2zm-6.866-4l.847-6.698C6.364 6.272 8.941 4 11.996 4s5.627 2.268 6.013 5.295L18.864 16H5.134z">
      </path>
    </symbol>

    <symbol viewBox="0 0 24 24" id="notifications-solid">
      <path
        d="M11.996 2c-4.062 0-7.49 3.021-7.999 7.051L2.866 18H7.1c.463 2.282 2.481 4 4.9 4s4.437-1.718 4.9-4h4.236l-1.143-8.958C19.48 5.017 16.054 2 11.996 2zM9.171 18h5.658c-.412 1.165-1.523 2-2.829 2s-2.417-.835-2.829-2z">
      </path>
    </symbol>

    <symbol viewBox="0 0 24 24" id="messages">
      <path
        d="M1.998 5.5c0-1.381 1.119-2.5 2.5-2.5h15c1.381 0 2.5 1.119 2.5 2.5v13c0 1.381-1.119 2.5-2.5 2.5h-15c-1.381 0-2.5-1.119-2.5-2.5v-13zm2.5-.5c-.276 0-.5.224-.5.5v2.764l8 3.638 8-3.636V5.5c0-.276-.224-.5-.5-.5h-15zm15.5 5.463l-8 3.636-8-3.638V18.5c0 .276.224.5.5.5h15c.276 0 .5-.224.5-.5v-8.037z">
      </path>
    </symbol>

    <symbol viewBox="0 0 24 24" id="messages-solid">
      <path
        d="M1.998 4.499c0-.828.671-1.499 1.5-1.499h17c.828 0 1.5.671 1.5 1.499v2.858l-10 4.545-10-4.547V4.499zm0 5.053V19.5c0 .828.671 1.5 1.5 1.5h17c.828 0 1.5-.672 1.5-1.5V9.554l-10 4.545-10-4.547z">
      </path>
    </symbol>

    <symbol viewBox="0 0 24 24" id="communities">
      <path
        d="M7.501 19.917L7.471 21H.472l.029-1.027c.184-6.618 3.736-8.977 7-8.977.963 0 1.95.212 2.87.672-.444.478-.851 1.03-1.212 1.656-.507-.204-1.054-.329-1.658-.329-2.767 0-4.57 2.223-4.938 6.004H7.56c-.023.302-.05.599-.059.917zm15.998.056L23.528 21H9.472l.029-1.027c.184-6.618 3.736-8.977 7-8.977s6.816 2.358 7 8.977zM21.437 19c-.367-3.781-2.17-6.004-4.938-6.004s-4.57 2.223-4.938 6.004h9.875zm-4.938-9c-.799 0-1.527-.279-2.116-.73-.836-.64-1.384-1.638-1.384-2.77 0-1.93 1.567-3.5 3.5-3.5s3.5 1.57 3.5 3.5c0 1.132-.548 2.13-1.384 2.77-.589.451-1.317.73-2.116.73zm-1.5-3.5c0 .827.673 1.5 1.5 1.5s1.5-.673 1.5-1.5-.673-1.5-1.5-1.5-1.5.673-1.5 1.5zM7.5 3C9.433 3 11 4.57 11 6.5S9.433 10 7.5 10 4 8.43 4 6.5 5.567 3 7.5 3zm0 2C6.673 5 6 5.673 6 6.5S6.673 8 7.5 8 9 7.327 9 6.5 8.327 5 7.5 5z">
      </path>
    </symbol>

    <symbol viewBox="0 0 24 24" id="communities-solid">
      <path
        d="M7.471 21H.472l.029-1.027c.184-6.618 3.736-8.977 7-8.977.963 0 1.95.212 2.87.672-1.608 1.732-2.762 4.389-2.869 8.248l-.03 1.083zM9.616 9.27C10.452 8.63 11 7.632 11 6.5 11 4.57 9.433 3 7.5 3S4 4.57 4 6.5c0 1.132.548 2.13 1.384 2.77.589.451 1.317.73 2.116.73s1.527-.279 2.116-.73zm6.884 1.726c-3.264 0-6.816 2.358-7 8.977L9.471 21h14.057l-.029-1.027c-.184-6.618-3.736-8.977-7-8.977zm2.116-1.726C19.452 8.63 20 7.632 20 6.5 20 4.57 18.433 3 16.5 3S13 4.57 13 6.5c0 1.132.548 2.13 1.384 2.77.589.451 1.317.73 2.116.73s1.527-.279 2.116-.73z">
      </path>
    </symbol>

    <symbol viewBox="0 0 24 24" id="communities-solid">
      <path
        d="M7.471 21H.472l.029-1.027c.184-6.618 3.736-8.977 7-8.977.963 0 1.95.212 2.87.672-1.608 1.732-2.762 4.389-2.869 8.248l-.03 1.083zM9.616 9.27C10.452 8.63 11 7.632 11 6.5 11 4.57 9.433 3 7.5 3S4 4.57 4 6.5c0 1.132.548 2.13 1.384 2.77.589.451 1.317.73 2.116.73s1.527-.279 2.116-.73zm6.884 1.726c-3.264 0-6.816 2.358-7 8.977L9.471 21h14.057l-.029-1.027c-.184-6.618-3.736-8.977-7-8.977zm2.116-1.726C19.452 8.63 20 7.632 20 6.5 20 4.57 18.433 3 16.5 3S13 4.57 13 6.5c0 1.132.548 2.13 1.384 2.77.589.451 1.317.73 2.116.73s1.527-.279 2.116-.73z">
      </path>
    </symbol>

    <symbol viewBox="0 0 24 24" id="profile">
      <path
        d="M5.651 19h12.698c-.337-1.8-1.023-3.21-1.945-4.19C15.318 13.65 13.838 13 12 13s-3.317.65-4.404 1.81c-.922.98-1.608 2.39-1.945 4.19zm.486-5.56C7.627 11.85 9.648 11 12 11s4.373.85 5.863 2.44c1.477 1.58 2.366 3.8 2.632 6.46l.11 1.1H3.395l.11-1.1c.266-2.66 1.155-4.88 2.632-6.46zM12 4c-1.105 0-2 .9-2 2s.895 2 2 2 2-.9 2-2-.895-2-2-2zM8 6c0-2.21 1.791-4 4-4s4 1.79 4 4-1.791 4-4 4-4-1.79-4-4z">
      </path>
    </symbol>

    <symbol viewBox="0 0 24 24" id="profile-solid">
      <path
        d="M17.863 13.44c1.477 1.58 2.366 3.8 2.632 6.46l.11 1.1H3.395l.11-1.1c.266-2.66 1.155-4.88 2.632-6.46C7.627 11.85 9.648 11 12 11s4.373.85 5.863 2.44zM12 2C9.791 2 8 3.79 8 6s1.791 4 4 4 4-1.79 4-4-1.791-4-4-4z">
      </path>
    </symbol>

    <symbol viewBox="0 0 24 24" id="bookmarks">
      <path
        d="M4 4.5C4 3.12 5.119 2 6.5 2h11C18.881 2 20 3.12 20 4.5v18.44l-8-5.71-8 5.71V4.5zM6.5 4c-.276 0-.5.22-.5.5v14.56l6-4.29 6 4.29V4.5c0-.28-.224-.5-.5-.5h-11z">
      </path>
    </symbol>

    <symbol viewBox="0 0 24 24" id="bookmarks-solid">
      <path d="M4 4.5C4 3.12 5.119 2 6.5 2h11C18.881 2 20 3.12 20 4.5v18.44l-8-5.71-8 5.71V4.5z"></path>
    </symbol>

    <symbol viewBox="0 0 24 24" id="retweet">
      <path
        d="M4.5 3.88l4.432 4.14-1.364 1.46L5.5 7.55V16c0 1.1.896 2 2 2H13v2H7.5c-2.209 0-4-1.79-4-4V7.55L1.432 9.48.068 8.02 4.5 3.88zM16.5 6H11V4h5.5c2.209 0 4 1.79 4 4v8.45l2.068-1.93 1.364 1.46-4.432 4.14-4.432-4.14 1.364-1.46 2.068 1.93V8c0-1.1-.896-2-2-2z">
      </path>
    </symbol>

    <symbol viewBox="0 0 24 24" id="retweet-solid">
      <path
        d="M4.75 3.79l4.603 4.3-1.706 1.82L6 8.38v7.37c0 .97.784 1.75 1.75 1.75H13V20H7.75c-2.347 0-4.25-1.9-4.25-4.25V8.38L1.853 9.91.147 8.09l4.603-4.3zm11.5 2.71H11V4h5.25c2.347 0 4.25 1.9 4.25 4.25v7.37l1.647-1.53 1.706 1.82-4.603 4.3-4.603-4.3 1.706-1.82L18 15.62V8.25c0-.97-.784-1.75-1.75-1.75z">
      </path>
    </symbol>

    <symbol viewBox="0 0 24 24" id="like">
      <path
        d="M16.697 5.5c-1.222-.06-2.679.51-3.89 2.16l-.805 1.09-.806-1.09C9.984 6.01 8.526 5.44 7.304 5.5c-1.243.07-2.349.78-2.91 1.91-.552 1.12-.633 2.78.479 4.82 1.074 1.97 3.257 4.27 7.129 6.61 3.87-2.34 6.052-4.64 7.126-6.61 1.111-2.04 1.03-3.7.477-4.82-.561-1.13-1.666-1.84-2.908-1.91zm4.187 7.69c-1.351 2.48-4.001 5.12-8.379 7.67l-.503.3-.504-.3c-4.379-2.55-7.029-5.19-8.382-7.67-1.36-2.5-1.41-4.86-.514-6.67.887-1.79 2.647-2.91 4.601-3.01 1.651-.09 3.368.56 4.798 2.01 1.429-1.45 3.146-2.1 4.796-2.01 1.954.1 3.714 1.22 4.601 3.01.896 1.81.846 4.17-.514 6.67z">
      </path>
    </symbol>

    <symbol viewBox="0 0 24 24" id="like-solid">
      <path
        d="M20.884 13.19c-1.351 2.48-4.001 5.12-8.379 7.67l-.503.3-.504-.3c-4.379-2.55-7.029-5.19-8.382-7.67-1.36-2.5-1.41-4.86-.514-6.67.887-1.79 2.647-2.91 4.601-3.01 1.651-.09 3.368.56 4.798 2.01 1.429-1.45 3.146-2.1 4.796-2.01 1.954.1 3.714 1.22 4.601 3.01.896 1.81.846 4.17-.514 6.67z">
      </path>
    </symbol>

    <symbol viewBox="0 0 24 24" id="reply">
      <path
        d="M1.751 10c0-4.42 3.584-8 8.005-8h4.366c4.49 0 8.129 3.64 8.129 8.13 0 2.96-1.607 5.68-4.196 7.11l-8.054 4.46v-3.69h-.067c-4.49.1-8.183-3.51-8.183-8.01zm8.005-6c-3.317 0-6.005 2.69-6.005 6 0 3.37 2.77 6.08 6.138 6.01l.351-.01h1.761v2.3l5.087-2.81c1.951-1.08 3.163-3.13 3.163-5.36 0-3.39-2.744-6.13-6.129-6.13H9.756z">
      </path>
    </symbol>

    <symbol viewBox="0 0 24 24" id="analytics">
      <path d="M8.75 21V3h2v18h-2zM18 21V8.5h2V21h-2zM4 21l.004-10h2L6 21H4zm9.248 0v-7h2v7h-2z"></path>
    </symbol>

    <symbol viewBox="0 0 24 24" id="share">
      <path
        d="M12 2.59l5.7 5.7-1.41 1.42L13 6.41V16h-2V6.41l-3.3 3.3-1.41-1.42L12 2.59zM21 15l-.02 3.51c0 1.38-1.12 2.49-2.5 2.49H5.5C4.11 21 3 19.88 3 18.5V15h2v3.5c0 .28.22.5.5.5h12.98c.28 0 .5-.22.5-.5L19 15h2z">
      </path>
    </symbol>

    <symbol viewBox="0 0 24 24" id="post">
      <path
        d="M23 3c-6.62-.1-10.38 2.421-13.05 6.03C7.29 12.61 6 17.331 6 22h2c0-1.007.07-2.012.19-3H12c4.1 0 7.48-3.082 7.94-7.054C22.79 10.147 23.17 6.359 23 3zm-7 8h-1.5v2H16c.63-.016 1.2-.08 1.72-.188C16.95 15.24 14.68 17 12 17H8.55c.57-2.512 1.57-4.851 3-6.78 2.16-2.912 5.29-4.911 9.45-5.187C20.95 8.079 19.9 11 16 11zM4 9V6H1V4h3V1h2v3h3v2H6v3H4z">
      </path>
    </symbol>

    <symbol viewBox="0 0 24 24" id="display">
      <path
        d="M22.21 2.793c-1.22-1.217-3.18-1.26-4.45-.097l-10.17 9.32C5.02 12.223 3 14.376 3 17v5h5c2.62 0 4.78-2.022 4.98-4.593L22.3 7.239c1.17-1.269 1.12-3.229-.09-4.446zM8 20H5v-3c0-1.657 1.34-3 3-3s3 1.343 3 3-1.34 3-3 3zM20.83 5.888l-8.28 9.033c-.5-1.09-1.38-1.971-2.47-2.47l9.03-8.28c.48-.44 1.22-.424 1.68.036s.48 1.201.04 1.681z">
      </path>
    </symbol>

    <symbol viewBox="0 0 24 24" id="settings">
      <path
        d="M10.54 1.75h2.92l1.57 2.36c.11.17.32.25.53.21l2.53-.59 2.17 2.17-.58 2.54c-.05.2.04.41.21.53l2.36 1.57v2.92l-2.36 1.57c-.17.12-.26.33-.21.53l.58 2.54-2.17 2.17-2.53-.59c-.21-.04-.42.04-.53.21l-1.57 2.36h-2.92l-1.58-2.36c-.11-.17-.32-.25-.52-.21l-2.54.59-2.17-2.17.58-2.54c.05-.2-.03-.41-.21-.53l-2.35-1.57v-2.92L4.1 8.97c.18-.12.26-.33.21-.53L3.73 5.9 5.9 3.73l2.54.59c.2.04.41-.04.52-.21l1.58-2.36zm1.07 2l-.98 1.47C10.05 6.08 9 6.5 7.99 6.27l-1.46-.34-.6.6.33 1.46c.24 1.01-.18 2.07-1.05 2.64l-1.46.98v.78l1.46.98c.87.57 1.29 1.63 1.05 2.64l-.33 1.46.6.6 1.46-.34c1.01-.23 2.06.19 2.64 1.05l.98 1.47h.78l.97-1.47c.58-.86 1.63-1.28 2.65-1.05l1.45.34.61-.6-.34-1.46c-.23-1.01.18-2.07 1.05-2.64l1.47-.98v-.78l-1.47-.98c-.87-.57-1.28-1.63-1.05-2.64l.34-1.46-.61-.6-1.45.34c-1.02.23-2.07-.19-2.65-1.05l-.97-1.47h-.78zM12 10.5c-.83 0-1.5.67-1.5 1.5s.67 1.5 1.5 1.5c.82 0 1.5-.67 1.5-1.5s-.68-1.5-1.5-1.5zM8.5 12c0-1.93 1.56-3.5 3.5-3.5 1.93 0 3.5 1.57 3.5 3.5s-1.57 3.5-3.5 3.5c-1.94 0-3.5-1.57-3.5-3.5z">
      </path>
    </symbol>

    <symbol viewBox="0 0 24 24" id="arrow-top-right">
      <path
        d="M1.996 5.5c0-1.38 1.119-2.5 2.5-2.5h15c1.38 0 2.5 1.12 2.5 2.5v13c0 1.38-1.12 2.5-2.5 2.5h-15c-1.381 0-2.5-1.12-2.5-2.5v-13zm2.5-.5c-.277 0-.5.22-.5.5v13c0 .28.223.5.5.5h15c.276 0 .5-.22.5-.5v-13c0-.28-.224-.5-.5-.5h-15zm8.085 5H8.996V8h7v7h-2v-3.59l-5.293 5.3-1.415-1.42L12.581 10z">
      </path>
    </symbol>

    <symbol viewBox="0 0 24 24" id="image">
      <path
        d="M3 5.5C3 4.119 4.119 3 5.5 3h13C19.881 3 21 4.119 21 5.5v13c0 1.381-1.119 2.5-2.5 2.5h-13C4.119 21 3 19.881 3 18.5v-13zM5.5 5c-.276 0-.5.224-.5.5v9.086l3-3 3 3 5-5 3 3V5.5c0-.276-.224-.5-.5-.5h-13zM19 15.414l-3-3-5 5-3-3-3 3V18.5c0 .276.224.5.5.5h13c.276 0 .5-.224.5-.5v-3.086zM9.75 7C8.784 7 8 7.784 8 8.75s.784 1.75 1.75 1.75 1.75-.784 1.75-1.75S10.716 7 9.75 7z">
      </path>
    </symbol>

    <symbol viewBox="0 0 24 24" id="gif">
      <path
        d="M3 5.5C3 4.119 4.12 3 5.5 3h13C19.88 3 21 4.119 21 5.5v13c0 1.381-1.12 2.5-2.5 2.5h-13C4.12 21 3 19.881 3 18.5v-13zM5.5 5c-.28 0-.5.224-.5.5v13c0 .276.22.5.5.5h13c.28 0 .5-.224.5-.5v-13c0-.276-.22-.5-.5-.5h-13zM18 10.711V9.25h-3.74v5.5h1.44v-1.719h1.7V11.57h-1.7v-.859H18zM11.79 9.25h1.44v5.5h-1.44v-5.5zm-3.07 1.375c.34 0 .77.172 1.02.43l1.03-.86c-.51-.601-1.28-.945-2.05-.945C7.19 9.25 6 10.453 6 12s1.19 2.75 2.72 2.75c.85 0 1.54-.344 2.05-.945v-2.149H8.38v1.032H9.4v.515c-.17.086-.42.172-.68.172-.76 0-1.36-.602-1.36-1.375 0-.688.6-1.375 1.36-1.375z">
      </path>
    </symbol>

    <symbol viewBox="0 0 24 24" id="poll">
      <path
        d="M6 5c-1.1 0-2 .895-2 2s.9 2 2 2 2-.895 2-2-.9-2-2-2zM2 7c0-2.209 1.79-4 4-4s4 1.791 4 4-1.79 4-4 4-4-1.791-4-4zm20 1H12V6h10v2zM6 15c-1.1 0-2 .895-2 2s.9 2 2 2 2-.895 2-2-.9-2-2-2zm-4 2c0-2.209 1.79-4 4-4s4 1.791 4 4-1.79 4-4 4-4-1.791-4-4zm20 1H12v-2h10v2zM7 7c0 .552-.45 1-1 1s-1-.448-1-1 .45-1 1-1 1 .448 1 1z">
      </path>
    </symbol>

    <symbol viewBox="0 0 24 24" id="emoji">
      <path
        d="M8 9.5C8 8.119 8.672 7 9.5 7S11 8.119 11 9.5 10.328 12 9.5 12 8 10.881 8 9.5zm6.5 2.5c.828 0 1.5-1.119 1.5-2.5S15.328 7 14.5 7 13 8.119 13 9.5s.672 2.5 1.5 2.5zM12 16c-2.224 0-3.021-2.227-3.051-2.316l-1.897.633c.05.15 1.271 3.684 4.949 3.684s4.898-3.533 4.949-3.684l-1.896-.638c-.033.095-.83 2.322-3.053 2.322zm10.25-4.001c0 5.652-4.598 10.25-10.25 10.25S1.75 17.652 1.75 12 6.348 1.75 12 1.75 22.25 6.348 22.25 12zm-2 0c0-4.549-3.701-8.25-8.25-8.25S3.75 7.451 3.75 12s3.701 8.25 8.25 8.25 8.25-3.701 8.25-8.25z">
      </path>
    </symbol>

    <symbol viewBox="0 0 24 24" id="schedule">
      <path
        d="M6 3V2h2v1h6V2h2v1h1.5C18.88 3 20 4.119 20 5.5v2h-2v-2c0-.276-.22-.5-.5-.5H16v1h-2V5H8v1H6V5H4.5c-.28 0-.5.224-.5.5v12c0 .276.22.5.5.5h3v2h-3C3.12 20 2 18.881 2 17.5v-12C2 4.119 3.12 3 4.5 3H6zm9.5 8c-2.49 0-4.5 2.015-4.5 4.5s2.01 4.5 4.5 4.5 4.5-2.015 4.5-4.5-2.01-4.5-4.5-4.5zM9 15.5C9 11.91 11.91 9 15.5 9s6.5 2.91 6.5 6.5-2.91 6.5-6.5 6.5S9 19.09 9 15.5zm5.5-2.5h2v2.086l1.71 1.707-1.42 1.414-2.29-2.293V13z">
      </path>
    </symbol>

    <symbol viewBox="0 0 24 24" id="location">
      <path
        d="M12 7c-1.93 0-3.5 1.57-3.5 3.5S10.07 14 12 14s3.5-1.57 3.5-3.5S13.93 7 12 7zm0 5c-.827 0-1.5-.673-1.5-1.5S11.173 9 12 9s1.5.673 1.5 1.5S12.827 12 12 12zm0-10c-4.687 0-8.5 3.813-8.5 8.5 0 5.967 7.621 11.116 7.945 11.332l.555.37.555-.37c.324-.216 7.945-5.365 7.945-11.332C20.5 5.813 16.687 2 12 2zm0 17.77c-1.665-1.241-6.5-5.196-6.5-9.27C5.5 6.916 8.416 4 12 4s6.5 2.916 6.5 6.5c0 4.073-4.835 8.028-6.5 9.27z">
      </path>
    </symbol>

    <symbol viewBox="0 0 24 24" id="copy">
      <path
        d="M18.36 5.64c-1.95-1.96-5.11-1.96-7.07 0L9.88 7.05 8.46 5.64l1.42-1.42c2.73-2.73 7.16-2.73 9.9 0 2.73 2.74 2.73 7.17 0 9.9l-1.42 1.42-1.41-1.42 1.41-1.41c1.96-1.96 1.96-5.12 0-7.07zm-2.12 3.53l-7.07 7.07-1.41-1.41 7.07-7.07 1.41 1.41zm-12.02.71l1.42-1.42 1.41 1.42-1.41 1.41c-1.96 1.96-1.96 5.12 0 7.07 1.95 1.96 5.11 1.96 7.07 0l1.41-1.41 1.42 1.41-1.42 1.42c-2.73 2.73-7.16 2.73-9.9 0-2.73-2.74-2.73-7.17 0-9.9z">
      </path>
    </symbol>

    <symbol viewBox="0 0 24 24" id="delete">
      <path
        d="M16 6V4.5C16 3.12 14.88 2 13.5 2h-3C9.11 2 8 3.12 8 4.5V6H3v2h1.06l.81 11.21C4.98 20.78 6.28 22 7.86 22h8.27c1.58 0 2.88-1.22 3-2.79L19.93 8H21V6h-5zm-6-1.5c0-.28.22-.5.5-.5h3c.27 0 .5.22.5.5V6h-4V4.5zm7.13 14.57c-.04.52-.47.93-1 .93H7.86c-.53 0-.96-.41-1-.93L6.07 8h11.85l-.79 11.07zM9 17v-6h2v6H9zm4 0v-6h2v6h-2z">
      </path>
    </symbol>

    <symbol viewBox="0 0 24 24" id="edit">
      <path
        d="M14.23 2.854c.98-.977 2.56-.977 3.54 0l3.38 3.378c.97.977.97 2.559 0 3.536L9.91 21H3v-6.914L14.23 2.854zm2.12 1.414c-.19-.195-.51-.195-.7 0L5 14.914V19h4.09L19.73 8.354c.2-.196.2-.512 0-.708l-3.38-3.378zM14.75 19l-2 2H21v-2h-6.25z">
      </path>
    </symbol>

    <symbol viewBox="0 0 24 24" id="pin">
      <path
        d="M17 9.76V4.5C17 3.12 15.88 2 14.5 2h-5C8.12 2 7 3.12 7 4.5v5.26L3.88 16H11v5l1 2 1-2v-5h7.12L17 9.76zM7.12 14L9 10.24V4.5c0-.28.22-.5.5-.5h5c.28 0 .5.22.5.5v5.74L16.88 14H7.12z">
      </path>
    </symbol>

    <symbol viewBox="0 0 24 24" id="highlight">
      <path
        d="M2 4c1.66 0 3-1.34 3-3h1c0 1.66 1.34 3 3 3v1C7.34 5 6 6.34 6 8H5c0-1.66-1.34-3-3-3V4zm7.89 4.9C11.26 7.53 12 5.35 12 2h2c0 3.35.74 5.53 2.1 6.9 1.36 1.36 3.55 2.1 6.9 2.1v2c-3.35 0-5.54.74-6.9 2.1-1.36 1.37-2.1 3.55-2.1 6.9h-2c0-3.35-.74-5.53-2.11-6.9C8.53 13.74 6.35 13 3 13v-2c3.35 0 5.53-.74 6.89-2.1zm7.32 3.1c-.97-.42-1.81-.97-2.53-1.69-.71-.71-1.27-1.56-1.68-2.52-.42.96-.98 1.81-1.69 2.52-.72.72-1.56 1.27-2.53 1.69.97.42 1.81.97 2.53 1.69.71.71 1.27 1.56 1.69 2.52.41-.96.97-1.81 1.68-2.52.72-.72 1.56-1.27 2.53-1.69z">
      </path>
    </symbol>

    <symbol viewBox="0 0 24 24" id="calender">
      <path
        d="M7 4V3h2v1h6V3h2v1h1.5C19.89 4 21 5.12 21 6.5v12c0 1.38-1.11 2.5-2.5 2.5h-13C4.12 21 3 19.88 3 18.5v-12C3 5.12 4.12 4 5.5 4H7zm0 2H5.5c-.27 0-.5.22-.5.5v12c0 .28.23.5.5.5h13c.28 0 .5-.22.5-.5v-12c0-.28-.22-.5-.5-.5H17v1h-2V6H9v1H7V6zm0 6h2v-2H7v2zm0 4h2v-2H7v2zm4-4h2v-2h-2v2zm0 4h2v-2h-2v2zm4-4h2v-2h-2v2z">
      </path>
    </symbol>

    <symbol viewBox="0 0 24 24" id="follow">
      <path
        d="M10 4c-1.105 0-2 .9-2 2s.895 2 2 2 2-.9 2-2-.895-2-2-2zM6 6c0-2.21 1.791-4 4-4s4 1.79 4 4-1.791 4-4 4-4-1.79-4-4zm13 4v3h2v-3h3V8h-3V5h-2v3h-3v2h3zM3.651 19h12.698c-.337-1.8-1.023-3.21-1.945-4.19C13.318 13.65 11.838 13 10 13s-3.317.65-4.404 1.81c-.922.98-1.608 2.39-1.945 4.19zm.486-5.56C5.627 11.85 7.648 11 10 11s4.373.85 5.863 2.44c1.477 1.58 2.366 3.8 2.632 6.46l.11 1.1H1.395l.11-1.1c.266-2.66 1.155-4.88 2.632-6.46z">
      </path>
    </symbol>

    <symbol viewBox="0 0 24 24" id="unfollow">
      <path
        d="M10 4c-1.105 0-2 .9-2 2s.895 2 2 2 2-.9 2-2-.895-2-2-2zM6 6c0-2.21 1.791-4 4-4s4 1.79 4 4-1.791 4-4 4-4-1.79-4-4zm12.586 3l-2.043-2.04 1.414-1.42L20 7.59l2.043-2.05 1.414 1.42L21.414 9l2.043 2.04-1.414 1.42L20 10.41l-2.043 2.05-1.414-1.42L18.586 9zM3.651 19h12.698c-.337-1.8-1.023-3.21-1.945-4.19C13.318 13.65 11.838 13 10 13s-3.317.65-4.404 1.81c-.922.98-1.608 2.39-1.945 4.19zm.486-5.56C5.627 11.85 7.648 11 10 11s4.373.85 5.863 2.44c1.477 1.58 2.366 3.8 2.632 6.46l.11 1.1H1.395l.11-1.1c.266-2.66 1.155-4.88 2.632-6.46z">
      </path>
    </symbol>

    <symbol viewBox="0 0 24 24" id="mute">
      <path
        d="M18 6.59V1.2L8.71 7H5.5C4.12 7 3 8.12 3 9.5v5C3 15.88 4.12 17 5.5 17h2.09l-2.3 2.29 1.42 1.42 15.5-15.5-1.42-1.42L18 6.59zm-8 8V8.55l6-3.75v3.79l-6 6zM5 9.5c0-.28.22-.5.5-.5H8v6H5.5c-.28 0-.5-.22-.5-.5v-5zm6.5 9.24l1.45-1.45L16 19.2V14l2 .02v8.78l-6.5-4.06z">
      </path>
    </symbol>

    <symbol viewBox="0 0 24 24" id="block">
      <path
        d="M12 3.75c-4.55 0-8.25 3.69-8.25 8.25 0 1.92.66 3.68 1.75 5.08L17.09 5.5C15.68 4.4 13.92 3.75 12 3.75zm6.5 3.17L6.92 18.5c1.4 1.1 3.16 1.75 5.08 1.75 4.56 0 8.25-3.69 8.25-8.25 0-1.92-.65-3.68-1.75-5.08zM1.75 12C1.75 6.34 6.34 1.75 12 1.75S22.25 6.34 22.25 12 17.66 22.25 12 22.25 1.75 17.66 1.75 12z">
      </path>
    </symbol>
    <symbol viewBox="0 0 24 24" id="upload">
      <path
        d="M9.697 3H11v2h-.697l-3 2H5c-.276 0-.5.224-.5.5v11c0 .276.224.5.5.5h14c.276 0 .5-.224.5-.5V10h2v8.5c0 1.381-1.119 2.5-2.5 2.5H5c-1.381 0-2.5-1.119-2.5-2.5v-11C2.5 6.119 3.619 5 5 5h1.697l3-2zM12 10.5c-1.105 0-2 .895-2 2s.895 2 2 2 2-.895 2-2-.895-2-2-2zm-4 2c0-2.209 1.791-4 4-4s4 1.791 4 4-1.791 4-4 4-4-1.791-4-4zM17 2c0 1.657-1.343 3-3 3v1c1.657 0 3 1.343 3 3h1c0-1.657 1.343-3 3-3V5c-1.657 0-3-1.343-3-3h-1z">
      </path>
    </symbol>

  </defs>
</svg>